<svg width="209" height="154" viewBox="0 0 209 154" fill="none" xmlns="http://www.w3.org/2000/svg">
<path d="M21.5728 129.6C20.1717 127.848 19.6755 124.637 19.8214 123.47C24.1998 123.47 40.3998 126.535 95.5672 127.41C146.356 126.097 166.059 117.778 176.129 111.21C183.572 114.275 196.707 120.105 206.34 128.724C212.995 134.678 205.61 140.399 201.086 142.297C199.626 143.172 192.066 145.624 173.502 148.426C153.186 152.63 110.454 153.681 91.6266 153.681C88.5618 153.681 61.4159 152.531 43.4646 145.799C29.4538 140.545 23.3241 131.789 21.5728 129.6Z" fill="#D20000"/>
<path d="M21.5728 129.6C20.1717 127.848 19.6755 124.637 19.8214 123.47C24.1998 123.47 40.3998 126.535 95.5672 127.41C146.356 126.097 166.059 117.778 176.129 111.21C183.572 114.275 196.707 120.105 206.34 128.724C212.995 134.678 205.61 140.399 201.086 142.297C199.626 143.172 192.066 145.624 173.502 148.426C153.186 152.63 110.454 153.681 91.6266 153.681C88.5618 153.681 61.4159 152.531 43.4646 145.799C29.4538 140.545 23.3241 131.789 21.5728 129.6Z" fill="url(#paint0_radial)"/>
<path fill-rule="evenodd" clip-rule="evenodd" d="M166.339 112.399L166.583 112.5C172.856 115.092 183.991 120.047 192.174 127.395C193.639 128.711 194.381 130.06 194.545 131.397C194.709 132.732 194.287 133.976 193.577 135.064C192.178 137.207 189.59 138.862 187.64 139.689C187.273 139.902 186.609 140.178 185.621 140.505C184.591 140.845 183.178 141.251 181.319 141.707C177.602 142.618 172.09 143.73 164.267 144.915C147.091 148.479 111.058 149.365 95.2126 149.365C93.8982 149.365 87.5161 149.12 79.5709 148.164C71.6293 147.208 62.0852 145.537 54.4679 142.67C43.2974 138.466 37.9951 131.63 36.1462 129.246L36.1462 129.246L36.1458 129.245C36.0187 129.081 35.908 128.939 35.8128 128.819C35.1575 127.997 34.7357 126.868 34.4913 125.848C34.2478 124.833 34.1605 123.841 34.2324 123.264L34.287 122.826H34.7286C35.6212 122.826 37.0609 122.971 39.2932 123.197H39.2932L39.7691 123.245C40.2196 123.29 40.7012 123.338 41.2161 123.389C41.2195 123.295 41.2261 123.207 41.2361 123.128L41.2912 122.69H41.7322C42.5484 122.69 43.8634 122.822 45.8972 123.025L45.8972 123.025L45.8974 123.025L45.8974 123.025L46.3335 123.068C46.9057 123.126 47.533 123.188 48.2204 123.254C48.2232 123.159 48.2296 123.071 48.2397 122.991L48.2954 122.555H48.7357C49.4754 122.555 50.6658 122.672 52.5014 122.853L52.8976 122.892C53.3444 122.936 53.8283 122.984 54.3522 123.034C54.3555 122.97 54.3607 122.91 54.368 122.854L54.4252 122.419H54.8637C55.5361 122.419 56.6168 122.523 58.2795 122.682L58.6403 122.716L58.8162 122.733C58.7314 122.238 58.7056 121.782 58.7445 121.475L58.8 121.038H59.2406C59.8399 121.038 60.7967 121.132 62.2547 121.277L62.3059 120.903H62.7422C63.2994 120.903 64.1927 120.985 65.5584 121.111L65.859 121.138C66.0989 121.16 66.3531 121.184 66.6225 121.208C66.6232 121.203 66.6239 121.198 66.6246 121.193L66.6882 120.767H67.1192C67.622 120.767 68.4279 120.835 69.6591 120.939L69.9305 120.962C71.3298 121.08 73.2703 121.24 75.9517 121.411C81.3135 121.754 89.6426 122.139 102.524 122.311C126.224 121.796 135.34 118.543 139.945 116.026L140.139 115.92L140.348 115.992C140.657 116.098 140.987 116.213 141.335 116.337C142.153 115.936 142.87 115.541 143.51 115.159L143.717 115.036L143.942 115.121C144.298 115.255 144.679 115.4 145.082 115.557C145.881 115.127 146.59 114.703 147.228 114.293L147.446 114.152L147.687 114.25C148.808 114.705 150.164 115.272 151.653 115.95C152.127 115.684 152.57 115.422 152.986 115.164L153.199 115.032L153.432 115.123C153.835 115.281 154.265 115.451 154.718 115.633C155.548 115.178 156.297 114.729 156.98 114.292L157.198 114.153L157.437 114.249C157.941 114.453 158.484 114.675 159.059 114.915C159.972 114.406 160.796 113.905 161.549 113.418L161.768 113.276L162.01 113.375C162.522 113.584 163.07 113.811 163.649 114.055C164.546 113.542 165.365 113.037 166.118 112.544L166.339 112.399ZM67.9505 122.803C68.5421 122.851 69.1691 122.901 69.8336 122.951C76.3343 123.439 86.4186 123.988 102.002 124.232L102.012 124.232L102.023 124.232C123.961 123.672 135.694 120.833 142.595 117.863C143.398 118.166 144.256 118.504 145.145 118.877C137.361 121.678 124.663 124.231 102.539 124.775C86.5234 124.534 75.7328 124.014 68.4871 123.524C68.486 123.523 68.4848 123.521 68.4837 123.52C68.4135 123.445 68.3523 123.379 68.2995 123.323C68.1657 123.183 68.0487 123.004 67.9505 122.803ZM66.8356 122.71C65.4581 122.592 64.2979 122.482 63.3224 122.387C63.3387 122.464 63.3575 122.544 63.3789 122.625C63.4264 122.806 63.4842 122.985 63.5516 123.156C64.5196 123.235 65.5828 123.318 66.7502 123.402C66.8826 123.412 67.0163 123.421 67.1513 123.431C67.0186 123.196 66.9148 122.948 66.8356 122.71ZM70.0337 126.349C68.658 126.289 67.3332 126.228 66.0574 126.166C67.8125 127.824 70.6979 129.988 75.1601 131.519C79.7598 133.097 85.5601 134.027 90.4287 134.561C95.2938 135.094 99.1903 135.229 99.9632 135.229C109.731 135.229 131.834 134.73 142.311 132.746L142.323 132.744L142.336 132.742C147.138 132.079 150.509 131.459 152.769 130.954C153.899 130.701 154.749 130.478 155.358 130.295C155.979 130.107 156.322 129.969 156.462 129.893L156.492 129.876L156.523 129.864C157.654 129.43 159.093 128.573 159.831 127.543C160.192 127.039 160.358 126.533 160.29 126.031C160.222 125.53 159.909 124.935 159.109 124.281C157.09 122.628 154.765 121.192 152.459 119.973C151.924 120.147 151.375 120.321 150.81 120.492C152.135 121.229 153.426 122.04 154.607 122.925C155.445 123.554 155.921 124.236 156.028 124.963C156.135 125.693 155.853 126.35 155.433 126.888C154.615 127.934 153.137 128.716 152.045 129.104C151.822 129.211 151.442 129.341 150.902 129.49C150.325 129.649 149.537 129.839 148.503 130.05C146.435 130.473 143.373 130.989 139.031 131.539C129.481 133.192 109.474 133.602 100.684 133.602C99.2421 133.602 86.4889 133.153 78.0212 130.492C74.2813 129.317 71.7142 127.698 70.0337 126.349ZM149.452 120.895C138.683 123.994 122.806 126.527 98.5449 127.157L98.5344 127.157L98.5239 127.157C88.0354 126.99 79.2174 126.728 71.8075 126.424C73.3683 127.502 75.4926 128.649 78.3211 129.538C86.6361 132.151 99.2616 132.602 100.684 132.602C109.493 132.602 129.425 132.189 138.872 130.551L138.883 130.549L138.894 130.548C143.225 130 146.264 129.488 148.302 129.07C149.321 128.862 150.087 128.678 150.636 128.526C151.196 128.372 151.504 128.258 151.627 128.196L151.655 128.182L151.685 128.171C152.706 127.812 153.992 127.107 154.645 126.272C154.963 125.866 155.093 125.478 155.039 125.109C154.984 124.736 154.724 124.263 154.007 123.725C152.608 122.676 151.045 121.732 149.452 120.895ZM146.497 118.369C146.986 118.178 147.453 117.986 147.9 117.794C146.921 117.368 145.992 116.989 145.145 116.655C144.743 116.864 144.322 117.074 143.878 117.284C144.712 117.611 145.593 117.972 146.497 118.369ZM62.2687 122.283L62.287 122.285C62.3172 122.478 62.3591 122.679 62.4118 122.879C62.4278 122.94 62.4451 123.002 62.4637 123.064C61.4888 122.981 60.6226 122.902 59.8534 122.831C59.791 122.541 59.7542 122.274 59.7375 122.055C60.3041 122.088 61.1129 122.169 62.2683 122.283L62.2685 122.283L62.2687 122.283ZM61.6742 125.938C62.607 125.99 63.57 126.041 64.5642 126.092C66.2502 127.855 69.4396 130.614 74.8356 132.465C79.5412 134.079 85.4292 135.018 90.3197 135.555C95.2138 136.092 99.1473 136.229 99.9632 136.229C109.71 136.229 131.895 135.733 142.485 133.731C147.299 133.066 150.695 132.442 152.987 131.93C154.134 131.673 155.008 131.445 155.647 131.252C156.247 131.071 156.667 130.914 156.911 130.786C158.123 130.316 159.751 129.372 160.644 128.125C161.102 127.485 161.393 126.727 161.281 125.898C161.169 125.068 160.668 124.265 159.743 123.507C157.909 122.007 155.838 120.684 153.758 119.537C154.338 119.337 154.901 119.135 155.447 118.933C158.444 120.532 161.576 122.5 164.226 124.838C165.102 125.61 165.463 126.327 165.542 126.955C165.62 127.585 165.425 128.208 165.024 128.811C164.209 130.038 162.629 131.048 161.399 131.557L161.366 131.571L161.336 131.589C161.18 131.68 160.805 131.843 160.128 132.063C159.464 132.279 158.539 132.54 157.307 132.837C154.845 133.43 151.172 134.158 145.942 134.937L145.928 134.939L145.915 134.941C134.502 137.27 110.424 137.856 99.7848 137.856C98.9427 137.856 94.6981 137.698 89.3984 137.071C84.0952 136.444 77.7759 135.353 72.7639 133.5C66.7446 131.274 63.3544 127.908 61.6742 125.938ZM153.084 117.73C152.566 117.936 152.03 118.141 151.473 118.346L151.459 118.339C151.976 118.113 152.471 117.888 152.945 117.662L153.084 117.73ZM150.544 116.548C150.098 116.778 149.627 117.01 149.13 117.243C148.128 116.794 147.17 116.391 146.285 116.033C146.734 115.777 147.154 115.524 147.549 115.274C148.434 115.635 149.447 116.06 150.544 116.548ZM143.135 116.528C143.394 116.408 143.644 116.289 143.888 116.17L143.814 116.141C143.596 116.269 143.37 116.398 143.135 116.528ZM60.3149 125.862C58.7658 125.773 57.3043 125.683 55.9254 125.593C56.0481 125.844 56.1894 126.073 56.3486 126.262C56.4197 126.347 56.5022 126.448 56.5967 126.563L56.5971 126.563L56.5973 126.564C57.9574 128.224 61.7945 132.908 69.9134 135.8C75.5085 137.793 82.5598 138.966 88.4735 139.64C94.3836 140.313 99.1184 140.483 100.061 140.483C111.92 140.483 138.768 139.853 151.5 137.351L151.512 137.349L151.525 137.347C157.358 136.511 161.454 135.728 164.202 135.09C165.576 134.771 166.609 134.49 167.352 134.257C168.106 134.021 168.531 133.844 168.711 133.742L168.741 133.725L168.773 133.712C170.152 133.163 171.924 132.072 172.839 130.745C173.289 130.092 173.509 129.417 173.421 128.736C173.332 128.055 172.925 127.278 171.942 126.442C167.654 122.797 162.238 119.989 157.788 118.014C157.426 118.164 157.056 118.313 156.677 118.462C159.494 120.014 162.394 121.888 164.888 124.088C165.891 124.973 166.417 125.897 166.534 126.832C166.65 127.764 166.349 128.625 165.857 129.365C164.896 130.812 163.133 131.916 161.812 132.468C161.549 132.617 161.093 132.801 160.437 133.014C159.742 133.24 158.791 133.508 157.541 133.809C155.045 134.41 151.346 135.143 146.102 135.924C134.568 138.273 110.402 138.856 99.7848 138.856C98.8964 138.856 94.6119 138.695 89.281 138.064C83.9538 137.435 77.5412 136.332 72.4171 134.438C65.3393 131.821 61.7531 127.66 60.3149 125.862ZM155.517 117.838L155.468 117.813C155.778 117.676 156.081 117.539 156.376 117.401L156.504 117.456C156.181 117.584 155.853 117.711 155.517 117.838ZM154.316 117.223C154.237 117.183 154.157 117.143 154.078 117.104C154.318 116.981 154.551 116.859 154.779 116.737C154.891 116.782 155.003 116.828 155.117 116.875C154.855 116.991 154.589 117.107 154.316 117.223ZM151.771 117.106C151.481 117.237 151.185 117.368 150.88 117.5C151.16 117.356 151.431 117.213 151.694 117.07L151.771 117.106ZM152.944 116.552L152.763 116.466C152.946 116.359 153.125 116.252 153.299 116.145L153.557 116.247C153.357 116.349 153.153 116.45 152.944 116.552ZM50.5491 125.212C51.8671 125.313 53.2839 125.415 54.8068 125.518C54.9945 126.017 55.2487 126.509 55.5837 126.906C55.6549 126.991 55.7379 127.092 55.833 127.208C57.219 128.9 61.1996 133.757 69.5779 136.742C75.282 138.774 82.4237 139.957 88.3603 140.633C94.3006 141.31 99.0738 141.483 100.061 141.483C111.898 141.483 138.831 140.857 151.68 138.335C157.526 137.496 161.647 136.709 164.428 136.064C165.819 135.742 166.877 135.454 167.651 135.212C168.384 134.982 168.888 134.786 169.174 134.629C170.639 134.04 172.596 132.858 173.662 131.312C174.207 130.523 174.541 129.604 174.412 128.607C174.283 127.61 173.7 126.624 172.589 125.68C168.476 122.184 163.37 119.453 159.04 117.481C159.622 117.225 160.181 116.968 160.718 116.712C165.873 118.975 172.647 122.405 177.893 127.005C178.984 127.962 179.447 128.862 179.548 129.663C179.648 130.465 179.396 131.252 178.894 132.005C177.874 133.53 175.909 134.776 174.385 135.402L174.352 135.416L174.322 135.434C174.119 135.553 173.647 135.755 172.814 136.024C171.994 136.289 170.853 136.609 169.337 136.972C166.305 137.698 161.786 138.589 155.353 139.541L155.339 139.543L155.326 139.545C141.28 142.394 111.664 143.11 98.5852 143.11C97.5443 143.11 92.3208 142.916 85.8012 142.15C79.278 141.384 71.4975 140.048 65.322 137.779C56.3553 134.483 52.1157 129.144 50.6133 127.252C50.5088 127.12 50.4176 127.006 50.3389 126.909C49.967 126.454 49.6841 125.802 49.4946 125.13C49.8388 125.157 50.1903 125.185 50.5491 125.212ZM159.491 116.182C158.949 116.43 158.386 116.679 157.799 116.926C157.723 116.893 157.647 116.86 157.571 116.827C158.112 116.558 158.626 116.29 159.117 116.024C159.241 116.076 159.365 116.128 159.491 116.182ZM157.922 115.527C157.424 115.786 156.902 116.046 156.355 116.306C156.201 116.242 156.05 116.178 155.9 116.116C156.394 115.832 156.86 115.551 157.3 115.273C157.502 115.355 157.71 115.439 157.922 115.527ZM48.4397 125.046C46.0362 124.85 44.0074 124.665 42.2974 124.5C42.3336 124.733 42.3824 124.984 42.4452 125.244C42.6531 126.101 42.9949 126.967 43.4671 127.553C43.5542 127.661 43.6552 127.79 43.7709 127.937C45.4352 130.061 50.1347 136.057 60.0714 139.757C66.9109 142.303 75.5258 143.801 82.7459 144.661C89.9624 145.52 95.745 145.738 96.899 145.738C111.372 145.738 144.152 144.934 159.702 141.74L159.715 141.737L159.728 141.735C166.849 140.668 171.852 139.668 175.209 138.854C176.887 138.447 178.151 138.087 179.061 137.79C179.982 137.488 180.51 137.26 180.739 137.124L180.769 137.105L180.802 137.091C182.493 136.388 184.679 134.985 185.816 133.261C186.378 132.41 186.664 131.511 186.55 130.591C186.436 129.672 185.914 128.651 184.699 127.572C178.192 121.791 169.565 117.657 163.711 115.167C163.135 115.489 162.528 115.812 161.888 116.137C166.982 118.418 173.459 121.787 178.552 126.254C179.771 127.322 180.4 128.429 180.54 129.538C180.679 130.645 180.319 131.671 179.725 132.56C178.559 134.306 176.41 135.645 174.796 136.314C174.485 136.49 173.932 136.714 173.122 136.975C172.27 137.25 171.104 137.578 169.57 137.945C166.504 138.678 161.959 139.574 155.512 140.528C141.346 143.398 111.643 144.11 98.5852 144.11C97.4983 144.11 92.2352 143.913 85.6845 143.143C79.1375 142.374 71.264 141.028 64.9771 138.717C55.7483 135.325 51.3656 129.807 49.8391 127.885L49.8389 127.885L49.8389 127.885C49.7341 127.753 49.6427 127.638 49.5642 127.542C49.011 126.864 48.6586 125.938 48.4553 125.11L48.4397 125.046ZM160.697 115.612C160.536 115.542 160.377 115.473 160.219 115.406C160.805 115.066 161.355 114.73 161.872 114.399C162.087 114.487 162.308 114.578 162.533 114.672C161.953 114.984 161.342 115.298 160.697 115.612ZM39.6688 124.24C40.1649 124.29 40.6989 124.343 41.2734 124.4C41.3168 124.741 41.3836 125.109 41.4733 125.479C41.6972 126.403 42.0842 127.43 42.6884 128.18C42.7752 128.288 42.8762 128.417 42.9921 128.565L42.9921 128.565L42.9924 128.565L42.9925 128.565C44.6802 130.718 49.5227 136.896 59.7224 140.694C66.6745 143.283 75.3834 144.791 82.6277 145.654C89.8757 146.517 95.6983 146.738 96.899 146.738C111.35 146.738 144.218 145.938 159.89 142.722C167.025 141.652 172.053 140.648 175.444 139.826C177.141 139.415 178.431 139.048 179.372 138.74C180.271 138.446 180.88 138.196 181.218 138.001C183 137.254 185.369 135.756 186.651 133.812C187.303 132.823 187.694 131.688 187.543 130.468C187.391 129.245 186.706 128.017 185.363 126.825C178.991 121.163 170.659 117.075 164.796 114.544C165.377 114.201 165.925 113.86 166.444 113.525C172.749 116.14 183.564 121.008 191.506 128.139C192.843 129.34 193.426 130.483 193.553 131.519C193.68 132.557 193.36 133.566 192.739 134.517C191.484 136.44 189.077 137.999 187.22 138.78L187.187 138.794L187.156 138.813C186.9 138.967 186.317 139.221 185.307 139.555C184.308 139.886 182.922 140.285 181.081 140.736C177.398 141.638 171.913 142.746 164.104 143.929L164.091 143.931L164.078 143.933C147.024 147.475 111.08 148.365 95.2126 148.365C93.9454 148.365 87.6038 148.123 79.6903 147.171C71.7733 146.218 62.3239 144.558 54.8202 141.734C43.9135 137.63 38.754 130.977 36.9279 128.622L36.9278 128.622L36.9276 128.622L36.9273 128.621L36.9273 128.621L36.9271 128.621L36.927 128.621C36.8005 128.458 36.69 128.315 36.5948 128.196C36.0699 127.537 35.6926 126.569 35.4637 125.615C35.2992 124.929 35.2217 124.294 35.2095 123.838C36.0708 123.876 37.3524 124.006 39.2532 124.198L39.6688 124.24Z" fill="url(#paint1_radial)"/>
<path d="M25.0754 20.5784C36.0213 16.2001 67.5455 8.75684 83.7455 6.12982H96.4427C112.205 7.5309 129.864 12.8433 136.724 15.3244C143.291 18.0974 157.74 25.2195 162.994 31.5243C168.248 37.8292 171.021 49.0378 171.751 53.854C171.751 53.854 170.786 100.265 170.875 104.205C170.964 108.146 176.129 111.211 176.129 111.211C169.999 116.465 157.74 123.47 136.724 125.221C127.036 126.029 110.453 127.848 88.5617 127.848C66.6698 127.848 31.2051 126.097 19.8213 123.47C8.4376 120.843 4.93492 116.902 1.87006 114.275C-0.319124 100.703 -1.63262 66.9891 4.05924 49.0378C9.5826 31.618 12.3781 26.2703 25.0754 20.5784Z" fill="url(#paint2_radial)"/>
<path d="M25.0754 20.5784C36.0213 16.2001 67.5455 8.75684 83.7455 6.12982C76.0104 7.58928 57.9131 13.9233 47.405 27.5838C34.2699 44.6594 30.3294 71.9131 30.3294 125.056C25.9401 124.575 22.3068 124.044 19.8213 123.47C8.4376 120.843 4.93492 116.902 1.87006 114.275C-0.319124 100.703 -1.63262 66.9891 4.05924 49.0378C9.5826 31.618 12.3781 26.2703 25.0754 20.5784Z" fill="url(#paint3_radial)"/>
<path d="M85.4969 5.69196C77.7617 7.15141 57.9132 13.9233 47.4051 27.5838C34.27 44.6594 30.3295 71.9131 30.3295 125.056" stroke="#212121"/>
<path d="M124.026 126.097C124.61 108.729 124.552 67.1642 119.648 45.0972C113.518 17.5135 106.075 12.6973 89.4374 4.81628" stroke="#212121"/>
<path d="M96.0048 6.12971H83.7454V2.8507C89.7 -2.55039 94.3994 0.946471 96.0048 3.37004V6.12971Z" fill="#D20000"/>
<path d="M96.0048 6.12971H83.7454V2.8507C89.7 -2.55039 94.3994 0.946471 96.0048 3.37004V6.12971Z" fill="url(#paint4_linear)"/>
<path d="M62.6888 104.099V53.3461H56.5997V46.5555H71.2488V53.3461H65.1345V104.099H62.6888Z" fill="white"/>
<path d="M72.5473 76.0732C72.5473 66.5218 73.371 59.0508 75.0183 53.6601C76.6656 48.2433 78.7919 45.5349 81.3973 45.5349C83.1034 45.5349 84.6415 46.8041 86.0114 49.3424C87.3814 51.8807 88.4235 55.4265 89.1379 59.9798C89.8607 64.5069 90.2221 69.6489 90.2221 75.4059C90.2221 81.2414 89.8439 86.462 89.0875 91.0676C88.3311 95.6732 87.2595 99.1667 85.8727 101.548C84.486 103.903 82.99 105.081 81.3847 105.081C79.645 105.081 78.0901 103.772 76.7202 101.155C75.3503 98.5386 74.3123 94.9667 73.6063 90.4396C72.9003 85.9125 72.5473 81.1237 72.5473 76.0732ZM75.0687 76.191C75.0687 83.1255 75.6654 88.5947 76.8589 92.5984C78.0607 96.576 79.5651 98.5648 81.3721 98.5648C83.2127 98.5648 84.7255 96.5498 85.9106 92.5199C87.104 88.49 87.7007 82.7723 87.7007 75.3667C87.7007 70.6826 87.4444 66.6003 86.9317 63.1199C86.4274 59.6134 85.6836 56.905 84.7003 54.9947C83.7254 53.0583 82.6286 52.09 81.4099 52.09C79.6786 52.09 78.1868 53.948 76.9345 57.6639C75.6906 61.3536 75.0687 67.5293 75.0687 76.191Z" fill="white"/>
<path d="M93.3864 104.099V46.5555H100.358C101.585 46.5555 102.522 46.7386 103.169 47.105C104.077 47.576 104.838 48.4788 105.451 49.8134C106.065 51.1218 106.556 52.9667 106.926 55.348C107.304 57.7293 107.493 60.3461 107.493 63.1985C107.493 68.0919 106.993 72.2396 105.993 75.6414C104.993 79.0171 103.186 80.705 100.572 80.705H95.8321V104.099H93.3864ZM95.8321 73.9143H100.61C102.19 73.9143 103.312 72.9984 103.976 71.1667C104.64 69.3349 104.972 66.7573 104.972 63.434C104.972 61.0265 104.775 58.9723 104.38 57.2714C103.993 55.5443 103.48 54.4059 102.842 53.8564C102.43 53.5162 101.669 53.3461 100.56 53.3461H95.8321V73.9143Z" fill="white"/>
<path d="M117.213 104.099V46.5555H119.659V75.0919L128.837 46.5555H132.152L124.399 69.8713L132.493 104.099H129.265L122.685 74.9741L119.659 84.1592V104.099H117.213Z" fill="white"/>
<path d="M134.585 104.099V46.5555H147.949V53.3461H137.031V70.9704H147.255V77.7218H137.031V97.3087H148.377V104.099H134.585Z" fill="white"/>
<path d="M151.655 104.099V46.5555H154.101V75.0919L163.279 46.5555H166.594L158.841 69.8713L166.935 104.099H163.707L157.126 74.9741L154.101 84.1592V104.099H151.655Z" fill="white"/>
<defs>
<radialGradient id="paint0_radial" cx="0" cy="0" r="1" gradientUnits="userSpaceOnUse" gradientTransform="translate(53.097 61.297) rotate(50.1727) scale(147.66 657.82)">
<stop stop-color="#620000"/>
<stop offset="1" stop-color="#560000" stop-opacity="0"/>
</radialGradient>
<radialGradient id="paint1_radial" cx="0" cy="0" r="1" gradientUnits="userSpaceOnUse" gradientTransform="translate(138.932 149.804) rotate(-106.777) scale(39.469 171.314)">
<stop stop-color="#E28A8A"/>
<stop offset="1" stop-color="#9C5252" stop-opacity="0"/>
</radialGradient>
<radialGradient id="paint2_radial" cx="0" cy="0" r="1" gradientUnits="userSpaceOnUse" gradientTransform="translate(88.1238 6.12983) rotate(85.8851) scale(122.033 176.584)">
<stop offset="0.0174908" stop-color="#444444"/>
<stop offset="1" stop-color="#080808"/>
</radialGradient>
<radialGradient id="paint3_radial" cx="0" cy="0" r="1" gradientUnits="userSpaceOnUse" gradientTransform="translate(81.5563 6.12983) rotate(125.559) scale(134.013 94.3691)">
<stop stop-color="#3C3C3C"/>
<stop offset="1"/>
</radialGradient>
<linearGradient id="paint4_linear" x1="89.8751" y1="0" x2="89.8751" y2="7.00538" gradientUnits="userSpaceOnUse">
<stop stop-color="#2A0000" stop-opacity="0"/>
<stop offset="1" stop-color="#390000" stop-opacity="0.43"/>
</linearGradient>
</defs>
</svg>
